<svg xmlns="http://www.w3.org/2000/svg" width="1em" height="1em" fill="currentColor" aria-hidden="true" viewBox="64 64 896 896"><path d="M239.825 534.975l409.8 400.525c19.75 19.325 51.825 19.325 71.575 0l47.8-46.7c19.75-19.3 19.75-50.55.075-69.875L444.325 500l324.75-318.925A48.675 48.675 0 00769 111.2l-47.8-46.7a51.45 51.45 0 00-71.575 0L239.825 465a48.675 48.675 0 000 69.95z"/><line x1="170" x2="400" y1="720" y2="720" stroke="#000" stroke-linecap="round" stroke-width="40"/><line x1="170" x2="400" y1="820" y2="820" stroke="#000" stroke-linecap="round" stroke-width="40"/><line x1="170" x2="400" y1="920" y2="920" stroke="#000" stroke-linecap="round" stroke-width="40"/><circle cx="100" cy="720" r="15" fill="currentColor" stroke="#000" stroke-width="40"/><circle cx="100" cy="820" r="15" fill="currentColor" stroke="#000" stroke-width="40"/><circle cx="100" cy="920" r="15" fill="currentColor" stroke="#000" stroke-width="40"/></svg>